# xmcd
#
# Track frame offsets: 
#        150
#        8606
#        40833
#        59777
#        69561
#        80993
#        95445
#        126013
#        140224
#        163520
#        188232
#        196188
#        240869
#
# Disc length: 3310 seconds
#
# Revision: 0
# Processed by: cddbd v1.5.2PL0 Copyright (c) Steve Scherf et al.
# Submitted via: ExactAudioCopyFreeDBPlugin 1.0
#
DISCID=b20cec0d
DTITLE=Pee Wee Bluesgang - Absolutely Live
DYEAR=1983
DGENRE=Blues Rock
TTITLE0=Listen Now
TTITLE1=Fool For Your Stockings
TTITLE2=Got All The Meaness Back In Me
TTITLE3=Down-Healed Blues
TTITLE4=Walkin' With The Down-Healed
TTITLE5=Playing Funky
TTITLE6=I Don't Need No Name
TTITLE7=Summer Sun
TTITLE8=Sweet Mary-Ann
TTITLE9=Baby, Please, Please
TTITLE10=Burnin' Eyes
TTITLE11=Hey Joe
TTITLE12=The End
EXTD=
EXTT0=
EXTT1=
EXTT2=
EXTT3=
EXTT4=
EXTT5=
EXTT6=
EXTT7=
EXTT8=
EXTT9=
EXTT10=
EXTT11=
EXTT12=
PLAYORDER=
